# xmcd
#
# Track frame offsets:
#	150
#	16175
#	28117
#	41539
#	54949
#	75626
#	93729
#	117381
#	129210
#	146599
#	161055
#	178506
#	192650
#	209859
#	225606
#
# Disc length: 3294 seconds
#
# Revision: 1
# Processed by: cddbd v1.5.2PL0 Copyright (c) Steve Scherf et al.
# Submitted via: audiograbber 1.83.01
#
DISCID=cf0cdc0f
DTITLE=Charly and the Outlaws - Live  on Stage Volume One
DYEAR=2009
DGENRE=Country
TTITLE0=Saturday Night
TTITLE1=Lonesome me
TTITLE2=2 Pina Colada
TTITLE3=Guitars in Cadillacs
TTITLE4=Friends in Low Places
TTITLE5=Neon Moon
TTITLE6=Boxer
TTITLE7=Be some Rocking
TTITLE8=Down Under
TTITLE9=Achy Breaky Heart
TTITLE10=I've got to say
TTITLE11=King of the Road
TTITLE12=I ride a horse
TTITLE13=Jambalaya
TTITLE14=Knocking on heavens door
EXTD=
EXTT0=
EXTT1=
EXTT2=
EXTT3=
EXTT4=
EXTT5=
EXTT6=
EXTT7=
EXTT8=
EXTT9=
EXTT10=
EXTT11=
EXTT12=
EXTT13=
EXTT14=
PLAYORDER=
